<svg width="182" height="182" viewBox="0 0 182 182" fill="none" xmlns="http://www.w3.org/2000/svg">
<g clip-path="url(#clip0_4_4743)">
<path d="M182 91.0002L161.397 68.1252L164.623 37.5012L134.495 31.1234L119.128 4.42636L91.0005 16.9972L87.2041 91.0002L91.0005 165.003L119.128 177.574L134.495 150.877L164.623 144.499L161.397 113.875L182 91.0002Z" fill="#0ED678"/>
<path d="M62.8724 4.42636L47.5049 31.1234L17.3773 37.5015L20.6032 68.1252L0 91.0002L20.6032 113.875L17.3773 144.499L47.5049 150.877L62.8728 177.574L91.0002 165.003V16.9972L62.8724 4.42636Z" fill="#04EB84"/>
<path d="M129.15 71.0746L121.184 63.9647L91.0005 97.7812L87.2041 106.185L91.0005 113.815L129.15 71.0746Z" fill="#F7F0EB"/>
<path d="M59.2789 82.9593L51.7295 90.509L83.4707 122.251L90.9999 113.815V97.7812L83.0301 106.71L59.2789 82.9593Z" fill="#FFFBF5"/>
</g>
<defs>
<clipPath id="clip0_4_4743">
<rect width="182" height="182" fill="white"/>
</clipPath>
</defs>
</svg>
